<svg version="1.0" xmlns="http://www.w3.org/2000/svg"
 width="100%" height="100%" viewBox="60 170 1200 680"
 preserveAspectRatio="xMidYMid meet">

<g transform="translate(0.000000,1024.000000) scale(0.100000,-0.100000)"
fill="#FFFFFF" stroke="none">
<path d="M6978 8000 l82 -23 0 -334 c0 -183 -2 -333 -4 -333 -2 0 -34 18 -71 39
-37 22 -91 49 -121 61 -49 20 -54 26 -69 70 -9 27 -33 68 -55 92 l-38 44 33
54 c40 66 81 184 90 262 l7 58 -68 -24 c-125 -44 -220 -59 -364 -59 -144 0
-230 14 -359 58 l-71 24 0 -33 c0 -59 39 -188 80 -261 l39 -72 -26 -24 c-31
-29 -83 -117 -83 -142 0 -12 -22 -28 -72 -51 -40 -18 -92 -45 -115 -59 l-43
-27 0 328 0 328 81 24 c74 21 91 22 202 15 302 -19 361 -20 502 -13 83 5 173
12 200 18 70 12 146 6 243 -20z m485 -119 c43 -10 80 -21 83 -24 3 -3 -3 -59
-15 -124 -83 -471 -64 -849 54 -1083 21 -41 25 -63 24 -132 l-1 -83 -18 80
c-37 166 -95 302 -186 437 l-54 81 0 434 c0 406 1 433 18 433 9 -1 52 -9 95
-19z m-885 -407 c59 -41 61 -74 31 -474 -11 -150 -19 -282 -17 -294 2 -12 30
105 62 259 33 154 62 285 65 292 9 17 125 -35 226 -101 272 -177 459 -501 481
-829 l6 -92 -36 -24 c-19 -12 -77 -40 -128 -62 -64 -26 -84 -38 -66 -39 41 0
217 36 268 55 63 24 97 29 105 16 26 -44 -294 -374 -432 -445 -43 -22 -244
-43 -531 -56 -255 -12 -575 -2 -827 26 -174 19 -223 39 -307 126 -91 95 -211
248 -237 302 -22 44 -22 49 -8 64 15 14 20 14 62 -7 25 -12 60 -27 77 -32 41
-12 222 -49 225 -45 1 1 -34 17 -80 36 -82 33 -150 71 -161 89 -10 15 12 197
34 283 80 310 298 575 586 710 47 22 87 38 88 36 1 -1 31 -137 66 -300 35
-164 65 -297 66 -295 2 1 -9 157 -23 345 -14 189 -22 360 -18 379 3 20 19 49
35 65 l28 28 169 0 c137 0 173 -3 191 -16z m1016 -1806 c4 -73 9 -177 12 -230
l6 -98 -591 0 -591 0 0 75 0 75 73 0 c222 0 640 41 701 69 54 25 165 105 249
180 54 49 75 61 101 61 l34 0 6 -132z m-2041 -109 c77 -31 479 -69 719 -69
l98 0 0 -75 0 -75 -450 0 -450 0 0 126 c0 116 1 126 18 119 9 -4 39 -16 65
-26z m793 -531 c-3 -13 -8 -51 -11 -86 -3 -35 -9 -70 -12 -78 -8 -22 -57 -44
-136 -60 -83 -18 -521 -31 -642 -19 l-75 7 0 124 0 123 103 4 c56 1 254 4 440
5 l337 2 -4 -22z m1182 15 l82 -6 0 -108 c0 -60 -1 -109 -2 -109 -2 0 -55 -7
-118 -16 -157 -21 -644 -30 -778 -15 -120 14 -196 35 -222 61 -12 12 -20 40
-25 87 -3 37 -8 78 -11 91 l-4 22 497 0 c274 0 535 -3 581 -7z m-6443 -914
c58 -29 110 -92 126 -151 6 -25 9 -109 7 -217 -4 -200 -12 -229 -88 -294 -104
-89 -293 -82 -389 14 -63 63 -71 93 -71 293 0 201 7 237 58 296 58 69 114 90
227 87 64 -2 91 -7 130 -28z m1759 11 c74 -28 130 -89 145 -159 6 -29 9 -57 5
-62 -3 -5 -36 -9 -73 -9 l-69 0 -6 33 c-10 55 -46 80 -119 85 -78 5 -117 -19
-117 -72 0 -45 20 -60 146 -110 137 -54 162 -67 196 -103 50 -52 62 -130 33
-201 -20 -47 -50 -78 -100 -105 -34 -19 -56 -22 -155 -22 -99 0 -121 3 -156
22 -76 41 -124 116 -124 196 l0 27 75 0 c74 0 75 0 75 -26 0 -59 51 -96 136
-98 66 -1 107 26 112 73 5 48 -16 65 -148 116 -174 68 -221 108 -236 202 -14
89 46 184 137 216 65 23 177 21 243 -3z m6972 -8 c79 -41 142 -136 132 -202
-3 -24 -6 -25 -73 -25 l-69 0 -7 35 c-11 53 -59 90 -115 90 -59 0 -100 -24
-119 -72 -18 -46 -21 -290 -4 -335 34 -92 145 -118 216 -51 18 17 23 32 23 75
l0 53 -65 0 -65 0 0 60 0 60 141 0 141 0 -3 -122 c-4 -112 -6 -127 -31 -168
-47 -81 -124 -120 -238 -120 -122 0 -201 44 -247 138 -27 55 -28 62 -28 222 0
91 3 181 8 201 16 79 88 151 175 180 49 15 183 5 228 -19z m1305 13 c91 -31
159 -114 162 -198 l2 -42 -68 0 -69 0 -14 40 c-20 60 -54 85 -117 85 -31 0
-62 -6 -75 -16 -45 -31 -52 -62 -52 -232 0 -149 1 -161 23 -193 30 -45 89 -65
144 -50 56 15 76 41 81 106 l4 54 -68 3 -69 3 0 55 0 55 140 0 140 0 0 -105
c-1 -119 -13 -166 -58 -217 -50 -57 -117 -83 -212 -83 -121 1 -199 43 -248
135 -20 36 -22 59 -25 212 -4 212 7 262 72 327 23 24 63 50 87 59 57 20 164
21 220 2z m-9399 -142 l3 -148 123 -3 122 -3 0 151 0 150 75 0 75 0 -2 -367
-3 -368 -70 0 -70 0 -3 153 -3 152 -124 0 -124 0 -3 -152 -3 -153 -64 -3 c-45
-2 -67 1 -72 10 -10 15 -12 712 -2 721 3 4 37 7 74 7 l68 0 3 -147z m2598 88
c0 -71 0 -71 -121 -71 l-89 0 -2 -302 -3 -303 -70 0 -70 0 -3 302 -2 302 -98
3 -97 3 -3 63 -3 62 281 0 280 0 0 -59z m761 36 c68 -36 103 -93 107 -177 6
-93 -21 -150 -89 -192 l-47 -30 74 -151 c41 -83 70 -155 65 -160 -4 -4 -39 -7
-76 -5 l-68 3 -68 150 -68 150 -55 3 -55 3 -3 -153 -3 -153 -70 0 -70 0 -3
368 -2 367 193 0 c184 0 196 -1 238 -23z m893 -84 c141 -432 197 -616 188
-625 -5 -5 -40 -8 -77 -6 l-68 3 -20 58 -19 57 -133 0 -133 0 -19 -57 -20 -58
-68 -3 c-37 -2 -72 1 -77 6 -5 5 12 74 41 163 27 85 79 247 116 362 l66 207
94 0 93 0 36 -107z m674 -260 l-3 -368 -70 0 -70 0 -3 368 -2 367 75 0 75 0
-2 -367z m652 142 c74 -124 139 -225 144 -225 4 0 7 100 5 223 l-4 222 73 3
72 3 -2 -368 -3 -368 -58 -3 c-36 -2 -64 2 -73 9 -8 7 -74 111 -147 233 l-132
220 -5 -230 -5 -229 -70 0 -70 0 -3 368 -2 367 72 0 73 0 135 -225z m808 -142
l-3 -368 -70 0 -70 0 -3 368 -2 367 75 0 75 0 -2 -367z m652 139 l135 -223 3
226 2 225 75 0 75 0 -2 -367 -3 -368 -61 -3 c-43 -2 -66 1 -75 11 -8 8 -72
111 -144 230 -71 119 -132 217 -135 217 -3 0 -5 -102 -5 -227 l0 -228 -70 0
-70 0 -3 368 -2 368 72 -3 73 -3 135 -223z m3388 166 l-3 -63 -97 -3 -98 -3
-2 -302 -3 -302 -70 0 -70 0 -3 302 -2 302 -98 3 -97 3 -3 63 -3 62 276 0 276
0 -3 -62z"/>
<path d="M5684 6430 c3 -150 23 -212 92 -289 48 -54 77 -65 149 -59 l40 3 -73
44 c-134 81 -183 165 -202 351 -7 66 -8 60 -6 -50z"/>
<path d="M7102 6510 c-34 -226 -67 -289 -198 -375 -46 -30 -84 -56 -84 -58 0
-1 32 0 71 3 70 5 73 7 112 50 73 82 112 207 104 335 -2 33 -4 53 -5 45z"/>
<path d="M6213 6404 c-39 -20 -48 -43 -68 -179 -9 -60 -18 -120 -21 -133 -4
-21 -2 -23 33 -20 l38 3 15 134 c21 173 18 171 180 171 158 0 163 -4 179 -137
23 -184 19 -173 57 -173 19 0 34 4 34 9 0 44 -43 288 -53 299 -27 33 -74 42
-219 42 -109 0 -151 -4 -175 -16z"/>
<path d="M855 3997 c-40 -40 -49 -93 -43 -259 5 -133 19 -171 76 -195 56 -23
110 -12 149 31 l33 36 0 165 c0 177 -7 207 -52 239 -14 10 -44 16 -76 16 -48
0 -58 -4 -87 -33z"/>
<path d="M4804 4017 c-3 -8 -4 -52 -2 -98 l3 -84 50 -3 c122 -8 185 24 185 93
0 49 -15 74 -55 91 -45 18 -174 19 -181 1z"/>
<path d="M5840 3968 c0 -2 -20 -72 -45 -154 -25 -82 -45 -152 -45 -156 0 -5
43 -8 95 -8 52 0 95 3 95 6 0 10 -92 309 -96 313 -2 2 -4 2 -4 -1z"/>
</g>
</svg>
